<svg id="Layer_1" xmlns="http://www.w3.org/2000/svg" viewBox="0 0 500 500"><style>.st0{fill:#fff920}</style><path class="st0" d="M382.6 454.6l-3.9 2.1c1.2-.8 2.6-1.8 4.3-2.9 1.7-1.1 3.5-2.4 5.5-3.7-1.2.8-2.5 1.6-3.7 2.4-.6.4-1.2.8-1.9 1.2-.6.4-1.3.7-1.9 1.1-2.6 1.5-5.2 3-7.9 4.6-5.5 2.9-11 6-16.8 8.6-1.4.7-2.9 1.4-4.3 2.1-1.5.7-3 1.3-4.4 1.9-1.5.6-3 1.3-4.5 1.9l-2.2 1-2.3.9c-3 1.2-6.1 2.3-9.1 3.5-3.1 1-6.2 2.1-9.2 3.1-12.4 3.9-24.8 6.8-36.6 8.9-3 .5-5.9.9-8.7 1.4l-2.1.3c-.7.1-1.4.2-2.1.2-1.4.2-2.8.3-4.2.5-5.5.7-10.8 1-15.7 1.4-7.1-.1-13.9-.1-19-.3-2.6-.1-4.7 0-6.4 0-1.6 0-2.7.1-3 .2-.4.2 0 .4 1 .7 1 .3 2.6.7 4.8 1 2.1.3 4.8.6 7.8.9 1.5.2 3.1.2 4.8.3 1.7.1 3.4.1 5.3.2 3.2.2 7 .2 9.3.3 1.3 0 2.6.1 4 .1.7 0 1.3 0 2 .1h2c2.8-.1 5.6-.1 8.5-.2 1.4 0 2.9-.1 4.4-.2l4.5-.3c1.5-.1 3-.2 4.6-.4 1.5-.2 3.1-.4 4.6-.6 1.6-.2 3.1-.4 4.7-.6 1.6-.2 3.2-.4 4.8-.7 3.2-.6 6.5-1.2 9.8-1.8 3.3-.8 6.6-1.6 10-2.4 1.7-.4 3.4-.9 5-1.4l5.1-1.5c-2.6.7-5.3 1.5-8 2.2l-8.1 1.8c4-1 8-1.9 11.9-3.1 2-.6 4-1.2 6.1-1.9 1-.3 2.1-.7 3.1-1.1 1-.4 2.1-.8 3.2-1.2-.9.2-2.2.5-3.1.7 13.5-4.2 28.9-11 42.3-19.1 3.3-2.1 6.5-4.2 9.6-6.2 1.6-1 3-2.1 4.5-3.2 1.4-1.1 2.8-2.1 4.2-3.1 2.8-2 5.2-4.1 7.4-6.1 1.1-1 2.2-1.9 3.2-2.8.5-.5 1-.9 1.5-1.3l1.3-1.3c6.9-6.9 8.5-9.7 5.9-8.6-1.3.6-3.8 2.1-7.2 4.5-.9.6-1.8 1.3-2.8 2-1 .7-2.1 1.4-3.3 2.2-2.3 1.6-4.8 3.4-7.7 5.3-4 2-7.4 4.3-10.9 6.4z"/><path class="st0" d="M335.4 473.2c15.2-5.3 29.4-11.8 42.9-19.6l2.8-1.4-1.6-.5-.2.2c-11.5 8.9-32.8 20.8-53.9 27.8-2.5.9-5 1.8-7.5 2.6-3.6 1.2-6 2.1-6.7 2.5-.8.5.5.5 3.3 0 1.4-.3 3.2-.6 5.2-1.1 2-.6 4.3-1.2 6.8-2 3.9-1.1 7.6-2.6 11.4-4 3.5-1.1 7.1-2.7 10.9-4.3 3.8-1.5 7.7-3.5 11.6-5.3 1-.5 2-1 3-1.4 1-.5 1.9-1.1 2.9-1.6 1.9-1.1 3.9-2.2 5.8-3.2 2-1 3.8-2.3 5.7-3.5 1.9-1.2 3.7-2.4 5.5-3.5 3.6-2.4 7-5 10.2-7.3 3.2-2.5 6.1-5 8.8-7.3 1.4-1.1 2.6-2.3 3.8-3.5 1.2-1.1 2.3-2.2 3.3-3.2s2-2 2.8-2.9c.8-.9 1.6-1.8 2.2-2.6 2.3-2.9-.5-1.2-1.4-1.1.1-.3-.4-.2-1.4.4-.5.3-1 .7-1.7 1.2s-1.5 1.1-2.4 1.7c-1.8 1.3-3.9 3-6.2 4.8-2.4 1.9-5.1 3.8-8 6-11.5 8.6-21.9 15.4-22.3 16.7-2.2 1.1-4.4 2.3-6.6 3.5 1.6-1 3.3-2.1 4.9-3.1-.8.7-2.1 1.6-3.8 2.6-1.7 1-3.6 2.4-5.9 3.5-2.2 1.2-4.6 2.5-7 3.7l-1.8.9-1.8.9c-1.2.6-2.3 1.1-3.5 1.7l-3.4 1.5c-1.1.5-2.2 1-3.4 1.4l-6.9 2.7 8.6-1.1c2.4-1.1 4.7-2.2 7-3.3-.6.2-1.7.5-1.6.4 13.3-6.4 25.3-13.4 38.4-22.7 2.7-2 5.4-4 8-6.1l7.7-6.5c1-.9 1.7-1.6 2.1-2.1.4-.5.5-.8.4-.8-.3-.1-1.6.9-4.1 2.5l-7.3 5.1c1.1-.7 2.2-1.5 3.3-2.2-16.4 12.2-35.5 22.6-54.3 29.9-3 1.1-6.6 2.5-8.1 3.3-1 1 .3.8 3.5-.3z"/><path class="st0" d="M397.5 437.4c2.8-1.8 5.2-3.9 8.8-7l1.4-1.4c-1.4 1.1-3.3 2.5-5.1 3.9-1.8 1.4-3.2 2.5-4.1 3.3-.8.7-1.2 1.1-1 1.2zM407.7 429c.6-.5 1.2-.9 1.6-1.2.4-.3.6-.5.6-.5-.5.4-1 .7-1.5 1.1-.4.3-.4.4-.4.4s0-.1-.3.2zM217.8 10.4c31.8-4 64.4-1.6 95.3 7 30.9 8.5 60.1 23.3 85.2 43.3 1.7 1.3 3.2 2.4 3.3 2.3.2 0-1.1-1.1-2.7-2.4-25.1-20-54.3-34.9-85.2-43.5-30.7-8.7-63.3-11.2-95.1-7.3-2.1.3-3.9.5-4.2.7-.1.2 1.4.1 3.4-.1zM470.3 314.1c.3-1.4.1-1.4-.3 0-.4 1.2-1.1 3.4-1.4 4.8-.3 1.2-.1 1.2.3 0 .3-.7.6-1.6.9-2.5.2-.9.4-1.7.5-2.3z"/><path class="st0" d="M463.9 299.2c.4-2 .8-4 1.2-5.9.4-1.9.6-3.9.8-5.8.3-1.9.5-3.7.7-5.5.1-1.8.3-3.6.4-5.3.1-1.3.3-2.7.5-3.8-.3.4-.2-1.1-.1-4C469 240 465 210 455 181.6c-5-14.2-11.5-27.9-19.3-40.9-7.9-12.9-17.2-25-27.5-35.9-.4-.2-1.1-.6-2.1-1.5-3.2-2.7-9.2-8.5-15.7-14.2l-4.9-4.3c-20.2-16.9-43.4-30-68.2-38.6-1.3-.4-2.6-.7-4-1.1-1.4-.4-2.8-.8-4.3-1.2-3-.7-6.1-1.6-9.4-2.3-11.1-2.4-22.4-3.7-33.7-4.3-11.4-.6-22.8-.4-34.3.9 1.5 0 2.3.1 2.3.3-.2.2-1.6.5-3.8.8-2.1.3-5 .8-8.1 1.1-3.1.3-6.2.9-9.3 1.4 2.2-.3 4.4-.7 6.6-1l6.7-.7c1.1-.1 2.2-.3 3.3-.3l3.4-.2c2.2-.1 4.5-.3 6.7-.4h3.6c9.8-.4 19.7.1 29.8 1.1 2.7.3 5.5.6 8.2 1 2.7.4 5.4.9 8.1 1.3 2.7.5 5.3 1.1 8 1.7 2.7.5 5.3 1.3 7.9 1.9l3.9 1c1.3.3 2.6.8 3.9 1.2 2.6.8 5.2 1.6 7.7 2.5 2.5.9 5.1 1.9 7.6 2.8 2.5.9 5 2.1 7.4 3.1 19.7 8.5 37.9 19.9 54 33.5 1 .9 2.1 1.7 3 2.6l2.9 2.7 2.9 2.7c1 .9 2 1.8 2.9 2.7 1.8 1.9 3.7 3.8 5.5 5.6.9.9 1.8 1.9 2.7 2.9l2.6 2.9 2.6 2.9c.9 1 1.7 2 2.5 3 1.6 2 3.3 4.1 4.9 6.1 3.1 4.3 6.2 8.4 9 12.9 3 4.3 5.5 8.9 8.1 13.4 2.4 4.6 4.9 9.2 7 14 2.3 4.7 4.1 9.6 6.1 14.4 1.7 4.9 3.6 9.8 4.9 14.9.4 1.3 1 3.4 1.2 4.6.1.8-.1.7-.5-.8-1-3.1-1.9-6.3-3-9.3-1.1-3-2.3-6-3.4-9-1.3-2.9-2.5-5.8-3.8-8.7-1.3-2.9-2.8-5.7-4.1-8.5-5.7-11.1-12.4-21.6-19.9-31.5-15.1-19.9-33.9-38-58.2-53.6l-1.3-.9c-.5-.3-.9-.5-1.4-.8l-2.8-1.6c-1.9-1.1-3.7-2.2-5.5-3.2l-5.7-3-2.8-1.5-2.9-1.3-5.8-2.7c-2-.8-3.9-1.6-5.9-2.4-3.9-1.7-8-3-12-4.4l-1.5-.5-1.5-.5-3.1-.9-3.1-.9c-1-.3-2-.6-3.1-.9-4.1-1-8.2-2.1-12.4-2.9l-6.3-1.2-6.3-.9-3.1-.5-3.2-.3-6.3-.6c-8.5-.5-17-.8-25.5-.3-4.3.1-8.5.6-12.7.9l-1.6.1-1.6.2-3.2.4-3.2.4c-1.1.1-2.1.3-3.2.5-4.2.8-8.4 1.5-12.5 2.6-2.1.5-4.2 1-6.2 1.5-2.1.6-4.1 1.2-6.2 1.8-1 .3-2.1.6-3.1.9l-3 1c-2 .7-4.1 1.4-6.1 2.1l-6 2.4-3 1.2-2.9 1.3c-2.1.9-4.1 1.8-6.2 2.7l-6 3-3 1.5-2.9 1.6c-1.9 1.1-3.9 2.2-5.8 3.3-1.9 1.2-3.7 2.4-5.6 3.5l-2.8 1.8c-.9.6-1.8 1.3-2.7 1.9-1.8 1.3-3.6 2.5-5.4 3.8-1.8 1.3-3.5 2.7-5.2 4-3.5 2.6-6.7 5.6-10 8.4l-1.2 1.1-1.2 1.1-2.4 2.3c-1.6 1.5-3.2 3-4.7 4.6l-4.5 4.8c-.7.8-1.5 1.6-2.2 2.4l-2.1 2.5-4.2 5c-1.3 1.7-2.6 3.5-4 5.2-20.9 27.7-34.5 61.1-38.9 97.3-2.9 24.4-1.5 49 4.2 72.4 5.6 23.3 15.3 45.4 28.4 65.1 6.6 9.8 14.1 19 22.2 27.6 8.2 8.5 17.1 16.4 26.6 23.5 19.1 13.9 40.6 24.6 63.6 31.2 2.2.6 4.3 1.1 6.5 1.7 1.1.3 2.1.5 3.2.8 1.1.2 2.1.5 3.2.7 4.2 1 8.4 1.7 12.4 2.5l1.5.3c.5.1 1 .1 1.5.2 1 .1 2 .3 3 .4 2 .3 3.9.6 5.7.8 1.9.2 3.7.4 5.5.6 1.8.2 3.5.5 5.2.6 3.3.2 6.4.6 9.2.8 2.8.2 5.3.3 7.5.6 4.4.3 7.4.6 8.6 1.2 1.4.7.1 1.5-3.5 2.5-.9.2-1.9.5-3.1.7-1.2.3-2.5.4-3.9.6-2.9.3-6.3.8-10.1.9 3.1.1 6.1 0 9.1 0h3.6c1.2 0 2.4-.1 3.6-.2l7.2-.4c13.6-1 25.2-3 32.6-3.9l5.1-.8 2.5-.4 2.5-.5c3.4-.6 7.3-1.2 11.4-2.3 2-.5 4.2-1.1 6.3-1.6 2.1-.6 4.2-1.3 6.3-1.9 4.2-1.2 8.2-2.8 12-4.1 1.9-.6 3.6-1.3 5.3-2 1.6-.6 3.2-1.2 4.6-1.6l-1.9 2 2.5-1.1c8.1-4 13.6-6.8 15.7-7.3l-.2 1.3c-.9 2.1-4.2 5.4-10 10.2.4.2-.1 1-1.6 2.3 1.5-.5 2.8-1 3.9-1.4 1.1-.4 1.9-.6 2.4-.6 1.1 0 .9.7-.9 2.6 3.4-1.8 3.1-1.1-.7 1.6-1.3.9-3 1.9-4.7 2.8 2-.8 2.6-1 5.3-2.3 3.4-2 5.3-3.1 5.3-3.1 4.5-2.6 6.6-4.2 8.6-5.5 1-.7 2-1.3 3.2-2.1.6-.4 1.2-.8 2-1.3.7-.5 1.5-1.1 2.4-1.8 3.2-2.2 5.8-4 7.6-5.2 1.8-1.3 2.7-2 2.7-2 7.7-4.3 7.7-4.3 7.2-2.9-.3.4-.7.8-1.1 1.3.7-.5 1.3-1 1.8-1.5s1-.8 1.4-1.2c.8-.7 1.4-1.2 1.8-1.6.9-.8 1.4-1.2 2.1-1.8 1.5-1.3 2.6-2.1 2.6-2.1.5.1.5.1 1.5-.6.4-.2.4 0 .4 0-2.5 3-2.5 3-2.5 3.2-.6.7-1.4 1.7-1.4 1.7-3.2 3.3-4.5 4.6-5.1 5.1-8.1 5.6-8.2 5.6-8.2 5.6-.7.8-1.1 1.2-1.2 1.4l-.2.2-2.1 1 1.3-.4-4.1 2.8 4.7-3.2c-4.7 3.5-7.1 5.3-8.7 6.5-1.7 1.2-2.7 1.9-4.6 3.2-2 1.4-3.9 2.7-5.3 3.7-1.4.9-2.4 1.6-2.6 1.7.4-.1.5 0 .5 0-2.7 1.6-4.7 2.9-6.4 3.9-1.7 1-3.1 1.7-4.4 2.5-1.4.7-2.7 1.5-4.4 2.4-.9.4-1.8 1-2.8 1.5-1.1.5-2.3 1.1-3.7 1.8-1.1.4-1.9.7-2.7 1-.5.3-1.3.7-2.2 1.2-.9.5-2 1-3.1 1.5-2 .8-4 1.7-5.9 2.5-.4.2-.9.4-1.2.6-2 1-3.4 1.5-5 2.2l-1 .4h-.1c-1.7.7-3.8 1.6-7.2 3-1.7.6-3.7 1.4-6.2 2.2-1.2.4-2.5.9-4 1.5-1.5.5-3 1-4.8 1.5-1.9.5-3.6.9-5.4 1.4-1.7.4-3.4.7-5.1 1.1 1.1-.2 2.1-.3 3.1-.5 2-.3.3.5 1.4.3 13.2-2.8 26.8-7.1 40.1-12.7s26.3-12.6 38.5-20.7c2.1-1.5 4.3-2.9 5.9-4 1.7-1.1 2.8-1.9 3.3-2 .4-.1-.1.5-1.3 1.5-1.1 1-3 2.4-5.2 4-11.9 9-25.5 17.2-40.3 24-14.8 6.8-30.8 12.1-47.2 15.6-16.4 3.5-33.3 5.2-49.7 5.1-16.5-.1-32.5-2-47.5-5.3-15.8-3.2-31.3-8.1-46.3-14.4.7.4 1.4.8 2.1 1.1-3.9-1.7-7.6-3.5-11.4-5.3l-1.2-.6c1.4.8 2.8 1.5 4.2 2.3 1.4.7 2.8 1.5 4.2 2.2 1 .5 2 .9 3 1.4 1 .5 2 .9 3.1 1.3 35.1 13.8 69.7 20 106.5 18.1 19.7-1.1 36.7-3.7 54.8-8.7 4.6-1.4 7.9-2.2 7.4-1.8-.4.4-4.7 2-9.2 3.4-15.1 4.6-31.1 7.9-47.5 9.5-16.3 1.5-32.9 1.4-48.8-.5-16-1.8-31.3-5.2-45.4-9.8-14.1-4.6-26.7-10.4-37.7-16.4-1.3-.6-2.5-1.3-3.8-1.9-.6-.3-1.3-.6-1.9-1-.6-.3-1.2-.7-1.8-1-2.4-1.4-4.8-2.7-7.1-4.1-1.2-.6-2.2-1.4-3.3-2.1-1.1-.7-2.1-1.4-3.2-2.1-2.1-1.4-4.1-2.7-5.9-4.1-.1-.1-.3-.2-.4-.3.9.8 1.8 1.5 2.8 2.2.9.7 1.9 1.4 2.8 2.1-1.8-1.2-3.4-2.2-4.8-3.2-1.4-1.1-2.7-2-3.9-3-1.3-1-2.5-1.9-3.8-2.9-.6-.5-1.3-1-2-1.6-.7-.6-1.4-1.1-2.1-1.8.6.7 1.2 1.7 1.8 2.4-2.1-1.6-4.1-3.3-6.2-4.9-1-.8-2.1-1.6-3.1-2.5-1-.9-2-1.7-3-2.6-2-1.8-4-3.5-6-5.3-2-1.8-3.9-3.7-5.8-5.6-4-3.6-7.5-7.7-11.2-11.6l-2.7-3-2.6-3.1-2.6-3.1c-.4-.5-.9-1-1.3-1.5l-1.2-1.6c-13.2-16.9-24-35.1-31.3-53.1-.6-1.4-1.2-2.8-1.7-4.1-3.6-7.5-6.6-15.3-9.5-23.7-.8-2.1-1.3-4.2-2-6.4-.6-2.2-1.3-4.4-1.9-6.6-.6-2.2-1.1-4.5-1.6-6.9-.5-2.3-1.1-4.7-1.5-7.1.1.8.2 1.7.4 2.5l.5 2.4c.3 1.6.7 3.3 1 4.9.4 1.6.6 3.3 1.1 4.9.4 1.6.8 3.2 1.2 4.9-4.1-13.8-6.9-27.9-8.2-43.4-.2-2.6-.4-5.2-.5-7.9-.2-2.6-.1-5.3-.2-8-.2-5.3.2-10.7.3-16 .2-2.6.4-5.3.7-7.9.1-1.3.2-2.6.4-3.9.1-1.3.3-2.6.5-3.9.4-2.6.7-5.1 1.1-7.6.4-2.5.9-4.9 1.4-7.3 1.9-9.6 4.5-18.5 7.1-26.1.3-1 .6-1.9 1-2.8.4-.9.7-1.8 1-2.7.7-1.7 1.4-3.4 2-5 .6-1.6 1.3-3.1 2-4.5s1.3-2.7 1.9-4c7-18.7 16.6-36.5 28.1-52.9s25.1-31.3 40.3-44.3c7.5-6.6 15.6-12.5 23.9-18.2 8.4-5.4 17-10.6 26-15 8.9-4.6 18.2-8.3 27.6-11.8l7.1-2.4 3.6-1.2 3.6-1 7.2-2 7.3-1.7c4-1 7.7-1.4 8.5-1.3.2.1-.3.3-1.4.6-1.1.3-2.8.6-4.8 1.1-28 6-55 17.2-79.3 32.8-12.2 7.8-23.6 16.6-34.2 26.4l-7.8 7.5-7.4 7.9c-4.8 5.4-9.5 10.9-13.8 16.7l2.8-3.6c.9-1.2 1.8-2.4 2.9-3.5l6-6.8c1-1.2 2-2.2 3.1-3.3l3.1-3.3 3.2-3.3c1.1-1.1 2.2-2.1 3.3-3.1 8.7-8.4 18.2-16 28.1-23 9.9-7.1 20.5-13.2 31.4-18.6l4.1-2 2.1-1 2.1-.9c2.8-1.2 5.6-2.4 8.5-3.6 5.7-2.2 11.5-4.4 17.4-6.2l4.5-1.5c1.5-.5 3-.9 4.6-1.3l4.6-1.3 2.3-.6 2.3-.5c3.1-.7 6.1-1.4 9.2-2 3.1-.5 6.1-1 9.2-1.4 31.2-4.8 62.4-3.3 92.4 3.9 30 7.2 58.9 20.1 85.1 38.9C413 73.5 431.4 92 446.4 113c3.9 5.2 7.3 10.7 10.7 16.2 1.6 2.8 3.2 5.6 4.9 8.5.8 1.4 1.5 2.9 2.3 4.3.7 1.5 1.5 2.9 2.2 4.4 5.8 11.8 10.9 24.2 14.9 37.4 5.6 18.6 8.9 37.4 10 56.1 1 18.7-.1 37.4-3.2 55.7l-.3 1.7-.4 1.7-.7 3.4c-.5 2.3-.9 4.6-1.4 6.8l-1.7 6.7c-.6 2.3-1.1 4.5-1.9 6.7-1.4 4.4-2.7 8.9-4.4 13.3l-2.4 6.6c-.9 2.2-1.8 4.3-2.8 6.5-1.8 4.4-3.9 8.5-6 12.8-1 2.1-2.2 4.2-3.3 6.3-1.1 2.1-2.3 4.1-3.4 6.2-1.2 2-2.5 4-3.7 6.1l-1.9 3-.9 1.5-1 1.5c-1.4 2-2.7 3.9-4.1 5.9l-2.1 3-2.2 2.9c-1.6 2-3.1 4-4.6 5.9-1.5 1.8-3 3.4-4.3 4.8-2.6 2.8-4.5 4.6-5.2 4.9-.6.3.2-1.1 1.9-3.5.9-1.2 2-2.7 3.3-4.3.7-.8 1.4-1.7 2.1-2.6.7-.9 1.5-1.9 2.2-2.9l4.5-6c1.5-2 2.8-4.1 4.2-6.2l2.1-3.1 1-1.5 1-1.6 3.9-6.4c1.3-2.1 2.5-4.3 3.7-6.5 1.2-2.2 2.4-4.4 3.5-6.6l3.2-6.7 1.6-3.4 1.5-3.4c7.8-18.2 13.5-37.3 16.5-56.9.4-2.4.8-4.9 1.1-7.3l.8-7.4.4-3.7.2-3.7.4-7.4c.2-9.9.2-19.7-.8-29.6-.3-4.9-1.1-9.8-1.7-14.7l-.2-1.8-.3-1.8-.7-3.6-.7-3.6c-.2-1.2-.4-2.4-.7-3.6-1.1-4.8-2.1-9.6-3.5-14.4-.7-2.4-1.3-4.8-2-7.1l-2.3-7c-.4-1.2-.8-2.3-1.2-3.5l-1.3-3.5-2.7-6.9-3-6.8-1.5-3.4c-.5-1.1-1.1-2.2-1.6-3.3l-3.4-6.6c-1.1-2.2-2.4-4.3-3.6-6.5l-1.8-3.2-.9-1.6-1-1.6-4-6.3c-1.3-2.1-2.8-4.1-4.2-6.2-1.4-2-2.9-4.1-4.3-6.1l-4.6-5.9-2.3-2.9-2.4-2.8-4.9-5.6c-1.6-1.9-3.4-3.6-5.1-5.4l-2.6-2.7c-.9-.9-1.7-1.8-2.7-2.6l-5.5-5.1c-.9-.8-1.8-1.7-2.8-2.5l-2.9-2.4-5.7-4.9-6-4.6-3-2.3c-1-.8-2.1-1.5-3.1-2.2l-6.2-4.3c-1-.7-2.1-1.4-3.2-2.1l-3.2-2-3.2-2-1.6-1-1.7-.9c-2.2-1.2-4.4-2.5-6.6-3.7-2.2-1.3-4.5-2.3-6.8-3.5l-3.4-1.7c-1.1-.6-2.3-1.1-3.4-1.6-4.7-2-9.3-4.1-14.1-5.8-9.5-3.7-19.3-6.6-29.3-9.1-17.2-4.1-34.6-6.3-52-6.6.2.1.4.2.4.3 0 .3-1.7.6-4.4.8 9.8.2 19.6.6 29.4 2 4.9.5 9.8 1.5 14.6 2.3l1.8.3 1.8.4 3.6.8 3.6.8 1.8.4 1.8.5c13.4 3.1 26.5 7.5 39.2 13.1 12.7 5.6 25 12.3 36.6 20.1 23.4 15.6 44.1 35.9 60.9 60.2 5.8 8.3 10.7 16.9 15.2 25.5 4.3 8.7 8.2 17.4 11.3 26.3.8 2.2 1.6 4.4 2.3 6.7.7 2.2 1.4 4.5 2 6.7.3 1.1.7 2.2 1 3.4l.9 3.4c.6 2.3 1.1 4.5 1.7 6.8.5 2.3.9 4.5 1.4 6.8.4 2.3 1 4.5 1.3 6.8.7 4.6 1.5 9.2 1.9 13.8l.6 4.4.3 2.2.2 2.2.7 8.8c.2 5.9.5 11.8.3 17.7l-.1 4.4c0 1.5-.2 2.9-.2 4.4-.2 2.9-.3 5.9-.6 8.8l-1 8.8c-.1 1.5-.4 2.9-.6 4.4l-.7 4.4c-3.8 23.3-11.4 46.1-22.1 67.5-.8 1.7-1.9 3.4-2.3 4-.4.5 0-.4.9-2.1 14.7-29.4 23.5-62.4 25-96-.8 5.3-1.5 8.4-2 7.9s-.7-4.6-.7-10.8c-.3 3.8-.5 7.5-.9 11.3-.5 3.7-.9 7.5-1.4 11.2-.8 4.6-1.6 8.2-1.9 8-.3-.2.1-3.8.9-8.2 4.5-30.3 2.9-61.4-4.6-91.1l-1.8-6.6-.5-1.7-.5-1.6-1.1-3.3c-.7-2.2-1.4-4.4-2.2-6.5l-2.5-6.4-1.2-3.2-1.4-3.1-2.8-6.3c-.9-2.1-2-4.1-3-6.2l-1.5-3.1c-.5-1-1-2-1.6-3-8.8-16.1-19.4-31.1-31.7-44.7 3 4.1 5.1 7.2 5.9 8.9 3.4 4.5 7 8.8 10.1 13.5 7.5 10.4 14.3 21.5 19.9 33.2 5.6 11.7 10.3 23.9 13.9 36.5 3.6 12.6 6.2 25.5 7.6 38.5 1.4 13.1 1.6 26.3.7 39.5-1.8 26.4-8.1 52.6-19 77-5.4 12.2-11.9 23.9-19.4 35l-2.9 4.1-1.4 2.1c-.5.7-1 1.4-1.5 2l-6.2 7.9c-2.2 2.6-4.4 5.1-6.5 7.6-1.1 1.3-2.2 2.5-3.4 3.7l-3.5 3.6c-1.4 1.5-2.7 2.7-2.8 2.6-.1-.1.9-1.3 2.2-2.7 22.6-23.1 40.1-51 51-81.2 0 0 0 .1-.1.1-.5 1.2-.8 1.4-.3 0 .4-1.2 1.3-3.5 1.7-4.7.5-1.4.6-1.2.3 0 9.6-28.4 13.3-58.5 11.3-88s-9.8-58.4-22.7-84.5c11.7 24.4 18.9 50.9 21.3 77.9.2 3.4.5 6.7.7 10.1l.2 10.1-.2 10.1c-.2 3.4-.5 6.7-.7 10.1-1.2 13.5-3.7 26.8-7.3 39.8l-1 4.3c-.3 1.4-.8 2.8-1.2 4.3-.4 1.4-.8 2.8-1.3 4.3-.4 1.4-.8 2.9-1.3 4.3-.5 1.5-1.4 3.5-1.7 4.1-.3.4 0-.8.6-2.4.5-1.6 1.1-3.1 1.6-4.7-.4 1.2-.8 2.4-1.3 3.5-.4 1.1-.9 2.2-1.3 3.2-.8 2-1.6 3.8-2.3 5.2-1.5 2.9-2.5 4.5-2.8 4.3-.2-.4.5-2.6 1.6-6 .5-1.7 1.2-3.7 1.9-5.9.4-1.1.8-2.2 1.2-3.4.4-1.2.8-2.4 1.2-3.7 8.8-26.7 12.5-55 11.1-82.9l-.8-9.1c-.4-3-.9-6-1.4-9 2.7 21.6 2.3 43.5-1.3 64.8-3.5 21.3-10.2 42.1-19.6 61.4-1.6 3.3-3.2 6-3.4 6-.2 0 .9-2.8 2.5-6.1 1.1-2.1 1.9-4.3 2.9-6.5.9-2.2 1.8-4.3 2.7-6.5l2.4-6.6 1.2-3.3 1-3.4 2.1-6.8 1.8-6.9.9-3.4.7-3.5 1.4-6.9 1.1-7 .6-3.5c.2-1.2.3-2.3.4-3.5l.8-7.1c.2-2.4.3-4.7.5-7.1l.2-3.5c.1-1.2 0-2.4.1-3.5l.1-7.1c0-2.4-.1-4.7-.2-7.1l-.1-3.5c-.1-1.2-.2-2.4-.3-3.5l-.6-7.1c-.3-2.4-.6-4.7-.9-7l-.5-3.5c-.2-1.2-.4-2.3-.6-3.5l-1.2-7c-.5-2.3-1-4.6-1.6-6.9l-.8-3.5c-.3-1.2-.6-2.3-.9-3.4l-1.9-6.9c-.7-2.3-1.5-4.5-2.2-6.8-5.9-18-14.5-35.1-24.8-51.1-14.5-20.3-32.2-38.2-52.8-52.7 2.5 2 5 3.9 7.4 6 1.9 1.7 3.9 3.3 5.8 4.9 1.8 1.7 3.7 3.5 5.5 5.2.9.9 1.8 1.7 2.7 2.6.9.9 1.7 1.8 2.6 2.7 1.7 1.8 3.4 3.6 5.1 5.3 1.6 1.9 3.2 3.7 4.8 5.5l2.4 2.7c.8.9 1.5 1.9 2.3 2.9l4.5 5.7c1.4 1.9 2.8 3.9 4.2 5.9l2.1 2.9c.7 1 1.3 2 2 3l3.9 6c1.2 2 2.4 4.1 3.6 6.1l1.8 3.1c.6 1 1.1 2.1 1.7 3.1l3.3 6.3c1.1 2.1 2 4.3 3 6.4 2.1 4.2 3.7 8.6 5.5 13 3.2 8.8 6.2 17.7 8.3 26.9 1.2 4.6 2 9.2 2.9 13.9.2 1.2.4 2.3.6 3.5l.5 3.5c.3 2.4.7 4.7.9 7.1.2 2.4.4 4.8.6 7.1.2 2.4.2 4.8.3 7.2.3 4.8.1 9.6.1 14.5-.1 2.4-.3 4.9-.4 7.3-.1 1.2-.1 2.4-.2 3.7-.1 1.2-.3 2.4-.4 3.7-.3 2.5-.5 4.9-.8 7.4-.4 2.5-.8 4.9-1.2 7.4-.3 2-.7 3.6-.9 3.8-.1.1-.1-.2 0-.8.1-.6.2-1.4.3-2.4.4-2.4.8-4.8 1.1-7.2.4-2.4.5-4.8.8-7.2.6-4.7.7-9.5 1-14.2.2-9.4.1-18.7-.9-27.9-1.7-18.5-5.9-36.6-12.3-54.6-5.4-15-12.3-28.9-20.4-41.7-8.1-12.8-17.4-24.5-27.6-34.9 20.5 21.8 36.2 47.2 46.4 74.8 10.2 27.5 14.8 57.2 13.1 87-.1 2.6-.4 5.2-.6 6.9v1.5c-.5 7.5-1.4 15.6-3 23.8-.3 1.6-.8 3.5-1.1 4.3-.2.1-.1-.9.2-2.7zm-249 182.7c.6.2 1.1.3 1.6.4-1.7-.3-3.5-.7-5.5-1.2l-.9-.3c-.5-.1-1.2-.4-2.2-.7-1.1-.3-2.5-.7-4.3-1.4 0 0 1.4.5 3.6 1 1.9.7 4.8 1.4 7.7 2.2zm96.7-9.5c1.2-.2 2.4-.3 3.1-.4.4-.1.7-.1.9-.2.2 0 .3-.1.3-.1-1.7.4-3.1.5-4.3.7zM91.4 71.5c-12.9 11.4-24.7 24.1-34.9 37.9-10.2 13.8-19 28.6-26.2 44.1 1.6-3.9 3.5-7.6 5.3-11.4l1.4-2.8c.5-.9 1-1.8 1.5-2.8l3-5.5c6.6-11.2 14.2-21.8 22.5-31.9 8.3-9.8 17.5-19.1 27.4-27.6zM281.2 486c-9 .7-16.1.5-22.7.2l-9 .3c-3.1 0-6.2-.1-9.3-.2-16.8-.7-33.1-3.3-48.6-7.4 1.9.9-1.8-.2-3.7-.6-2-.5-3.9-1-5.9-1.5 16.4 5.1 33.5 8.5 51 10 2 .2 4 .4 6 .5 2 .1 4.1.2 6.1.2 4.1.2 8.2.1 12.3.1 8.2-.2 16.3-.8 23.8-1.6zm110-46.4c.4-.3.8-.5 1.2-.8l-2.2 2.4s.4-.7 1-1.6zm3.5-3.7c-.6.5-1.3.9-2 1.4.6-.7 1.2-1.1 2-1.4zM376 448.4c1.2-.6 1.9-.9 2.9-1.5l-2.9 1.5zm-21-5.1c-1 1-2 2.1-3 3.1l-3.1 3 3.5-3.1 3.3-3.3-.7.3z"/></svg>